{
  "accessors": [
    {
      "bufferView": 1,
      "componentType": 5126,
      "count": 47021,
      "max": [
        0.057773835957050323,
        0.05875038355588913,
        0.05289115011692047
      ],
      "min": [
        0.0,
        0.0,
        0.0
      ],
      "type": "VEC3"
    },
    {
      "bufferView": 1,
      "byteOffset": 564252,
      "componentType": 5126,
      "count": 47021,
      "max": [
        0.9999899864196777,
        0.9999524354934692,
        0.999464750289917
      ],
      "min": [
        -0.9999887347221375,
        -0.999894917011261,
        -0.9998503923416138
      ],
      "type": "VEC3"
    },
    {
      "bufferView": 0,
      "componentType": 5125,
      "count": 276480,
      "type": "SCALAR"
    }
  ],
  "asset": {
    "extras": {
      "author": "NooN-collective (https://sketchfab.com/NooNcollective)",
      "license": "CC-BY-4.0 (http://creativecommons.org/licenses/by/4.0/)",
      "source": "https://sketchfab.com/3d-models/forme-08-tulip-sphere-468262c276584206a77df7a019e7e504",
      "title": "FORME-08- Tulip Sphere"
    },
    "generator": "Sketchfab-12.67.0",
    "version": "2.0"
  },
  "bufferViews": [
    {
      "buffer": 0,
      "byteLength": 1105920,
      "name": "floatBufferViews",
      "target": 34963
    },
    {
      "buffer": 0,
      "byteLength": 1128504,
      "byteOffset": 1105920,
      "byteStride": 12,
      "name": "floatBufferViews",
      "target": 34962
    }
  ],
  "buffers": [
    {
      "byteLength": 2234424,
      "uri": "scene.bin"
    }
  ],
  "materials": [
    {
      "doubleSided": true,
      "name": "material_0",
      "pbrMetallicRoughness": {
        "baseColorFactor": [
          0.2961382707983211,
          0.230740048524349,
          0.11697066775851084,
          1.0
        ],
        "roughnessFactor": 0.26900255607836165
      }
    }
  ],
  "meshes": [
    {
      "name": "Object_0",
      "primitives": [
        {
          "attributes": {
            "NORMAL": 1,
            "POSITION": 0
          },
          "indices": 2,
          "material": 0,
          "mode": 4
        }
      ]
    }
  ],
  "nodes": [
    {
      "children": [
        1
      ],
      "matrix": [
        1.0,
        0.0,
        0.0,
        0.0,
        0.0,
        2.220446049250313e-16,
        -1.0,
        0.0,
        0.0,
        1.0,
        2.220446049250313e-16,
        0.0,
        0.0,
        0.0,
        0.0,
        1.0
      ],
      "name": "Sketchfab_model"
    },
    {
      "children": [
        2
      ],
      "matrix": [
        1.0,
        0.0,
        0.0,
        0.0,
        0.0,
        1.0,
        0.0,
        0.0,
        0.0,
        0.0,
        1.0,
        0.0,
        -0.028886917978525162,
        -0.029375191777944565,
        -0.026445575058460236,
        1.0
      ],
      "name": "83281fd0e40a473ba47d6c5440dcd33f.lwo.cleaner.gles"
    },
    {
      "children": [
        3
      ],
      "name": "/sketchfab-data/processing/96234afdba0140d78e88959ec3bd7202/preprocess/83281fd0e40a473ba47d6c5440dcd33f.lwo"
    },
    {
      "children": [
        4
      ],
      "name": "Tulip_Sphere"
    },
    {
      "mesh": 0,
      "name": "Object_4"
    }
  ],
  "scene": 0,
  "scenes": [
    {
      "name": "Sketchfab_Scene",
      "nodes": [
        0
      ]
    }
  ]
}
