{
  "accessors": [
    {
      "bufferView": 1,
      "componentType": 5126,
      "count": 15360,
      "max": [
        2.6138737201690674,
        2.716001272201538,
        2.4034037590026855
      ],
      "min": [
        0.0,
        0.0,
        0.0
      ],
      "type": "VEC3"
    },
    {
      "bufferView": 1,
      "byteOffset": 184320,
      "componentType": 5126,
      "count": 15360,
      "max": [
        0.9999750256538391,
        1.0,
        0.9991337060928345
      ],
      "min": [
        -0.9999750256538391,
        -1.0,
        -0.9991337060928345
      ],
      "type": "VEC3"
    },
    {
      "bufferView": 0,
      "componentType": 5125,
      "count": 92160,
      "type": "SCALAR"
    }
  ],
  "asset": {
    "extras": {
      "author": "NooN-collective (https://sketchfab.com/NooNcollective)",
      "license": "CC-BY-4.0 (http://creativecommons.org/licenses/by/4.0/)",
      "source": "https://sketchfab.com/3d-models/forme-04-inosaedron-55890070a7884059a572631c3f75c36a",
      "title": "FORME-04-Inosaedron"
    },
    "generator": "Sketchfab-12.67.0",
    "version": "2.0"
  },
  "bufferViews": [
    {
      "buffer": 0,
      "byteLength": 368640,
      "name": "floatBufferViews",
      "target": 34963
    },
    {
      "buffer": 0,
      "byteLength": 368640,
      "byteOffset": 368640,
      "byteStride": 12,
      "name": "floatBufferViews",
      "target": 34962
    }
  ],
  "buffers": [
    {
      "byteLength": 737280,
      "uri": "scene.bin"
    }
  ],
  "materials": [
    {
      "name": "default",
      "pbrMetallicRoughness": {
        "baseColorFactor": [
          0.2980650742199495,
          0.23292086230368855,
          0.1180443476369672,
          1.0
        ],
        "roughnessFactor": 0.19999999999999996
      }
    }
  ],
  "meshes": [
    {
      "name": "Object_0",
      "primitives": [
        {
          "attributes": {
            "NORMAL": 1,
            "POSITION": 0
          },
          "indices": 2,
          "material": 0,
          "mode": 4
        }
      ]
    }
  ],
  "nodes": [
    {
      "children": [
        1
      ],
      "matrix": [
        0.8241761922836304,
        0.0,
        0.0,
        0.0,
        0.0,
        1.8300387700423534e-16,
        -0.8241761922836304,
        0.0,
        0.0,
        0.8241761922836304,
        1.8300387700423534e-16,
        0.0,
        0.0,
        0.0,
        0.0,
        1.0
      ],
      "name": "Sketchfab_model"
    },
    {
      "children": [
        2
      ],
      "matrix": [
        1.0,
        0.0,
        0.0,
        0.0,
        0.0,
        1.0,
        0.0,
        0.0,
        0.0,
        0.0,
        1.0,
        0.0,
        -1.3069368600845337,
        -1.358000636100769,
        -1.2017018795013428,
        1.0
      ],
      "name": "Inosaedron_Wires_Linked.obj.cleaner.gles"
    },
    {
      "mesh": 0,
      "name": "Object_2"
    }
  ],
  "scene": 0,
  "scenes": [
    {
      "name": "Sketchfab_Scene",
      "nodes": [
        0
      ]
    }
  ]
}
